
<svg xmlns="http://www.w3.org/2000/svg" fill-rule="evenodd" stroke-linejoin="round" stroke-miterlimit="2" clip-rule="evenodd" viewBox="0 0 32 33"><path fill="none" d="M.432.074h31.424v32H.432z"/><path fill="#040804" d="M11.244 15.999a4.19 4.19 0 0 0-2.693-.975H5.99a4.207 4.207 0 0 0-4.205 4.205v3.842a.364.364 0 0 0 .726 0v-3.842A3.48 3.48 0 0 1 5.99 15.75h2.56c.812 0 1.558.277 2.15.743a5.009 5.009 0 0 0-1.39 3.468v4.664a.362.362 0 1 0 .727 0v-4.664a4.304 4.304 0 0 1 4.3-4.302h3.11c1.305 0 2.475.582 3.264 1.5a.36.36 0 0 0 .209.263c.522.712.83 1.59.83 2.539v4.664a.362.362 0 1 0 .726 0v-4.664a5.003 5.003 0 0 0-.885-2.848 3.465 3.465 0 0 1 2.154-.747h2.56a3.48 3.48 0 0 1 3.48 3.479v3.842a.364.364 0 0 0 .726 0v-3.842a4.207 4.207 0 0 0-4.205-4.205h-2.561a4.19 4.19 0 0 0-2.608.906 5.017 5.017 0 0 0-3.69-1.613h-3.11a5.009 5.009 0 0 0-3.093 1.066Zm9.314 3.599h-1.555a.362.362 0 0 0-.363.363v3.11a.364.364 0 0 0 .726 0v-2.747h1.192a.364.364 0 0 0 0-.726Zm-9.33.726h1.192v2.747a.364.364 0 0 0 .726 0v-3.11a.362.362 0 0 0-.363-.363h-1.554a.362.362 0 1 0 0 .726Zm17.639-.842h-1.28a.362.362 0 0 0-.363.363v2.561a.363.363 0 1 0 .726 0v-2.198h.917a.363.363 0 1 0 0-.726Zm-25.438.11h.917v2.198a.364.364 0 0 0 .726 0v-2.561a.362.362 0 0 0-.363-.363h-1.28a.362.362 0 1 0 0 .726ZM25.025 9.236a2.925 2.925 0 1 0 .002 5.848 2.925 2.925 0 0 0-.002-5.848ZM7.27 8.62a2.927 2.927 0 0 0-2.925 2.925A2.925 2.925 0 1 0 7.27 8.62Zm17.754 1.342a2.2 2.2 0 1 1-2.198 2.199 2.2 2.2 0 0 1 2.198-2.199Zm-9.132-2.803a3.475 3.475 0 0 0-3.473 3.473 3.474 3.474 0 0 0 6.946 0 3.474 3.474 0 0 0-3.473-3.473ZM7.27 9.346a2.2 2.2 0 0 1 0 4.397 2.2 2.2 0 0 1 0-4.397Zm8.622-1.461a2.748 2.748 0 1 1-2.747 2.747 2.748 2.748 0 0 1 2.747-2.747Z"/></svg>